<svg width="14" height="13" viewBox="0 0 14 13" fill="none" xmlns="http://www.w3.org/2000/svg">
<path d="M9.20552 1.85974C10.3784 1.85974 11.3295 2.81093 11.3295 3.98376V9.00232C11.3295 10.1752 10.3784 11.1263 9.20552 11.1263H4.57271C3.39987 11.1263 2.44868 10.1752 2.44868 9.00232V3.98376C2.44868 2.81093 3.39987 1.85974 4.57271 1.85974H9.20552Z" fill="white" fill-opacity="0.3" stroke="white" stroke-width="1.15833"/>
<path d="M9.20552 1.85974C10.3784 1.85974 11.3295 2.81093 11.3295 3.98376V5.52771C11.3295 6.70055 10.3784 7.65173 9.20552 7.65173H6.69576V11.1263H4.57271C3.39987 11.1263 2.44868 10.1752 2.44868 9.00232V3.98376C2.44868 2.81093 3.39987 1.85974 4.57271 1.85974H9.20552Z" fill="black" fill-opacity="0.2" stroke="white" stroke-width="1.15833"/>
</svg>